<svg xmlns="http://www.w3.org/2000/svg" width="85" height="85" viewBox="0 0 85 85" fill="none">
<path fill-rule="evenodd" clip-rule="evenodd" d="M76.9968 67.3292C82.0329 60.3444 85 51.7687 85 42.5C85 19.0279 65.9721 0 42.5 0C19.0279 0 0 19.0279 0 42.5C0 48.1245 1.09259 53.4938 3.0771 58.4073C7.49403 55.0633 14.4634 53.028 21.95 52.358V34.9096L14.875 39.5944V32.3543L35.6119 18.3V25.753L28.537 30.2249V52.1208C31.8596 52.1756 35.1685 52.4935 38.2947 53.0791V17.2353C40.5717 16.0286 45.1256 13.5726 45.1256 13.4023V26.1789H50.9808V9.99519L57.3238 6.37513V58.1994C66.6145 61.3228 72.743 64.5171 76.9968 67.3292ZM75.9192 68.7595C69.327 65.8587 61.1401 63.6831 50.295 61.5822C43.5494 60.2754 36.6755 59.6752 29.8063 59.8323C21.6516 60.0189 12.5208 60.6944 5.38975 63.2299C12.6613 76.2194 26.5553 85 42.5 85C56.0604 85 68.1375 78.6491 75.9192 68.7595ZM50.9808 56.2282C49.1127 55.6911 47.1396 55.1591 45.0548 54.6347L44.6377 32.9932H50.9808V56.2282Z" fill="white"/>
</svg>