<svg width="88" height="86" viewBox="0 0 88 86" fill="none" xmlns="http://www.w3.org/2000/svg">
<g id="Group 1000009786">
<g id="Group 1000009756">
<g id="No Notification illustration">
<path id="Vector" d="M42.2945 85.0573C65.5226 85.0573 84.3527 66.2272 84.3527 42.9991C84.3527 19.771 65.5226 0.940918 42.2945 0.940918C19.0664 0.940918 0.236328 19.771 0.236328 42.9991C0.236328 66.2272 19.0664 85.0573 42.2945 85.0573Z" fill="url(#paint0_linear_383_27917)"/>
<path id="Vector (Stroke)" fill-rule="evenodd" clip-rule="evenodd" d="M42.3607 5.63064C42.1505 5.54393 41.9254 5.4995 41.6981 5.49989L41.6962 5.49989C41.2373 5.50029 40.7973 5.68278 40.4727 6.00729C40.1484 6.33162 39.9659 6.77132 39.9653 7.22997V9.40782H35.6613L35.6613 7.22705C35.6626 5.6279 36.2985 4.09463 37.4293 2.96384C38.5599 1.83327 40.0928 1.19742 41.6916 1.19581L41.6925 1.19581C42.485 1.19468 43.27 1.34971 44.0026 1.65205C44.7358 1.95463 45.4021 2.39881 45.9634 2.95917C46.5248 3.51954 46.9701 4.18509 47.2739 4.91773C47.5778 5.65038 47.7342 6.43575 47.7342 7.22892V9.32724H43.4301V7.22891C43.4301 7.0016 43.3853 6.77653 43.2982 6.56655C43.2111 6.35658 43.0835 6.16584 42.9226 6.00525C42.7617 5.84466 42.5708 5.71736 42.3607 5.63064ZM41.6925 1.19581L41.6916 1.19581L41.6925 1.19581Z" fill="url(#paint1_linear_383_27917)"/>
<path id="Vector_2" d="M41.9595 79.7407C50.8801 79.7407 58.1116 72.5091 58.1116 63.5886C58.1116 54.6681 50.8801 47.4365 41.9595 47.4365C33.039 47.4365 25.8074 54.6681 25.8074 63.5886C25.8074 72.5091 33.039 79.7407 41.9595 79.7407Z" fill="url(#paint2_linear_383_27917)"/>
<path id="Vector_3" d="M67.4447 45.7811V33.3892C67.4447 26.6301 64.7597 20.1478 59.9802 15.3683C55.2008 10.5889 48.7185 7.90381 41.9593 7.90381C35.2002 7.90381 28.7178 10.5889 23.9384 15.3683C19.159 20.1478 16.4739 26.6301 16.4739 33.3892V45.7811C16.4742 48.628 15.6688 51.4169 14.1509 53.8254C12.6329 56.2339 10.4644 58.1637 7.89593 59.3917C7.3056 59.6728 6.80727 60.1159 6.45897 60.6692C6.11066 61.2226 5.92672 61.8635 5.92854 62.5174V62.5845C5.9281 62.8207 5.97423 63.0546 6.0643 63.2729C6.15437 63.4912 6.2866 63.6896 6.45344 63.8568C6.62027 64.0239 6.81843 64.1565 7.03657 64.247C7.25471 64.3375 7.48855 64.384 7.72471 64.384H76.1906C76.4267 64.384 76.6606 64.3375 76.8787 64.247C77.0968 64.1565 77.295 64.0239 77.4618 63.8568C77.6287 63.6896 77.7609 63.4912 77.851 63.2729C77.941 63.0546 77.9872 62.8207 77.9867 62.5845V62.5174C77.987 61.8656 77.8026 61.2271 77.455 60.6757C77.1075 60.1243 76.6109 59.6826 76.0227 59.4018C73.4527 58.173 71.2831 56.2417 69.7651 53.8312C68.247 51.4208 67.4425 48.6298 67.4447 45.7811Z" fill="url(#paint3_linear_383_27917)"/>
<path id="Star 2" d="M79.281 21.7544C79.5938 20.4583 81.4374 20.4583 81.7503 21.7544C81.8621 22.2176 82.2238 22.5792 82.687 22.6911C83.9831 23.0039 83.9831 24.8475 82.687 25.1604C82.2238 25.2722 81.8621 25.6339 81.7503 26.0971C81.4374 27.3932 79.5938 27.3932 79.281 26.0971C79.1692 25.6339 78.8075 25.2722 78.3443 25.1604C77.0482 24.8475 77.0482 23.0039 78.3443 22.6911C78.8075 22.5792 79.1692 22.2176 79.281 21.7544Z" fill="#9DD0FF"/>
<path id="Star 1" d="M11.5598 72.0738C11.8727 70.7776 13.7163 70.7776 14.0291 72.0738C14.1409 72.5369 14.5026 72.8986 14.9658 73.0104C16.2619 73.3233 16.2619 75.1669 14.9658 75.4798C14.5026 75.5916 14.1409 75.9532 14.0291 76.4164C13.7163 77.7125 11.8727 77.7125 11.5598 76.4164C11.448 75.9532 11.0863 75.5916 10.6231 75.4798C9.32701 75.1669 9.32701 73.3233 10.6231 73.0104C11.0863 72.8986 11.448 72.5369 11.5598 72.0738Z" fill="#9DD0FF"/>
</g>
<g id="Group 1000009755">
<g id="Ellipse 1675">
<circle cx="60.7448" cy="18.4981" r="10.6372" fill="url(#paint4_linear_383_27917)"/>
<circle cx="60.7448" cy="18.4981" r="11.2775" stroke="white" stroke-opacity="0.5" stroke-width="1.28049"/>
</g>
</g>
</g>
</g>
<defs>
<linearGradient id="paint0_linear_383_27917" x1="41.9703" y1="-12.7543" x2="42.8319" y2="134.948" gradientUnits="userSpaceOnUse">
<stop stop-color="#E1F8FF" stop-opacity="0"/>
<stop offset="1" stop-color="#E0F2FF"/>
</linearGradient>
<linearGradient id="paint1_linear_383_27917" x1="40.8243" y1="14.5531" x2="41.0166" y2="1.09099" gradientUnits="userSpaceOnUse">
<stop stop-color="#416BFF"/>
<stop offset="1" stop-color="#D6E7FF"/>
</linearGradient>
<linearGradient id="paint2_linear_383_27917" x1="37.984" y1="84.6125" x2="36.5102" y2="36.3266" gradientUnits="userSpaceOnUse">
<stop stop-color="white"/>
<stop offset="0.691489" stop-color="#0067FF"/>
</linearGradient>
<linearGradient id="paint3_linear_383_27917" x1="51.9373" y1="63.4421" x2="51.9373" y2="4.8228" gradientUnits="userSpaceOnUse">
<stop stop-color="#82B4FF"/>
<stop offset="1" stop-color="#FAFFFF"/>
</linearGradient>
<linearGradient id="paint4_linear_383_27917" x1="60.7448" y1="7.86084" x2="60.7448" y2="29.1353" gradientUnits="userSpaceOnUse">
<stop stop-color="#FF9599"/>
<stop offset="1" stop-color="#DA595E"/>
</linearGradient>
</defs>
</svg>
