<svg width="22" height="22" viewBox="0 0 22 22" fill="none" xmlns="http://www.w3.org/2000/svg">
<g id="united-states 1">
<g id="Group">
<path id="Vector" d="M21.2903 3.90332H11.3548L0.386719 11.4942V17.8035H21.2903L22 17.3872V16.0692L21.5381 15.63V14.3839L22 14.0415V12.0139L21.5846 11.616V10.3412L22 9.98619V7.95858L21.5846 7.59124V6.47406L22 5.93097V4.61299C22 4.22103 21.6822 3.90332 21.2903 3.90332Z" fill="#F93939"/>
<path id="Vector_2" d="M11.0143 5.93115H22V7.9588H11.0143V5.93115Z" fill="#F2F2F6"/>
<path id="Vector_3" d="M11 9.98633L11.3548 12.014H22V9.98633H11Z" fill="#F2F2F6"/>
<path id="Vector_4" d="M0.709672 15.2581V11.6445L0 12.0138V14.0415L0.300781 14.2979V15.6299L0 16.0691V17.3871C0 17.7791 0.317754 18.0968 0.709672 18.0968H21.2903C21.6822 18.0968 22 17.779 22 17.3871H2.83873C1.66289 17.3871 0.709672 16.4339 0.709672 15.2581Z" fill="#F93939"/>
<path id="Vector_5" d="M11.3548 3.90332H0.709672L0.257812 4.61299L0.709672 12.0139H11.3548V3.90332Z" fill="#1A47B8"/>
<path id="Vector_6" d="M0.709672 3.90332C0.317754 3.90332 0 4.22103 0 4.61299V12.0139H0.709672V3.90332Z" fill="#3F3F8F"/>
<path id="Vector_7" d="M1.42284 5.48555C1.22669 5.48555 1.06628 5.32665 1.06628 5.13071C1.06628 4.93478 1.22325 4.77588 1.4194 4.77588H1.42288C1.61903 4.77588 1.77772 4.93478 1.77772 5.13071C1.77772 5.32665 1.61895 5.48555 1.42284 5.48555Z" fill="white"/>
<path id="Vector_8" d="M1.42284 8.32393C1.22669 8.32393 1.06628 8.16503 1.06628 7.96909C1.06628 7.77316 1.22325 7.61426 1.4194 7.61426H1.42288C1.61903 7.61426 1.77772 7.77316 1.77772 7.96909C1.77772 8.16503 1.61895 8.32393 1.42284 8.32393Z" fill="white"/>
<path id="Vector_9" d="M1.42284 11.1628C1.22669 11.1628 1.06628 11.0039 1.06628 10.808C1.06628 10.612 1.22325 10.4531 1.4194 10.4531H1.42288C1.61903 10.4531 1.77772 10.612 1.77772 10.808C1.77772 11.0039 1.61895 11.1628 1.42284 11.1628Z" fill="white"/>
<path id="Vector_10" d="M1.42284 6.9045C1.22669 6.9045 1.06628 6.7456 1.06628 6.54966C1.06628 6.35372 1.22325 6.19482 1.4194 6.19482H1.42288C1.61903 6.19482 1.77772 6.35372 1.77772 6.54966C1.77767 6.7456 1.61895 6.9045 1.42284 6.9045Z" fill="#F2F2F6"/>
<path id="Vector_11" d="M1.42284 9.74336C1.22669 9.74336 1.06628 9.58446 1.06628 9.38853C1.06628 9.19259 1.22325 9.03369 1.4194 9.03369H1.42288C1.61903 9.03369 1.77772 9.19259 1.77772 9.38853C1.77772 9.58446 1.61895 9.74336 1.42284 9.74336Z" fill="#F2F2F6"/>
<path id="Vector_12" d="M9.93895 5.48555C9.7428 5.48555 9.5824 5.32665 9.5824 5.13071C9.5824 4.93478 9.73936 4.77588 9.93551 4.77588H9.939C10.1351 4.77588 10.2938 4.93478 10.2938 5.13071C10.2938 5.32665 10.1351 5.48555 9.93895 5.48555Z" fill="white"/>
<path id="Vector_13" d="M9.93895 8.32393C9.7428 8.32393 9.5824 8.16503 9.5824 7.96909C9.5824 7.77316 9.73936 7.61426 9.93551 7.61426H9.939C10.1351 7.61426 10.2938 7.77316 10.2938 7.96909C10.2938 8.16503 10.1351 8.32393 9.93895 8.32393Z" fill="white"/>
<path id="Vector_14" d="M9.93895 11.1628C9.7428 11.1628 9.5824 11.0039 9.5824 10.808C9.5824 10.612 9.73936 10.4531 9.93551 10.4531H9.939C10.1351 10.4531 10.2938 10.612 10.2938 10.808C10.2938 11.0039 10.1351 11.1628 9.93895 11.1628Z" fill="white"/>
<g id="Group_2">
<path id="Vector_15" d="M9.93895 6.90498C9.7428 6.90498 9.5824 6.74609 9.5824 6.55015C9.5824 6.35421 9.73936 6.19531 9.93551 6.19531H9.939C10.1351 6.19531 10.2938 6.35421 10.2938 6.55015C10.2938 6.74609 10.1351 6.90498 9.93895 6.90498Z" fill="#F2F2F6"/>
<path id="Vector_16" d="M9.93895 9.74385C9.7428 9.74385 9.5824 9.58495 9.5824 9.38902C9.5824 9.19308 9.73936 9.03418 9.93551 9.03418H9.939C10.1351 9.03418 10.2938 9.19308 10.2938 9.38902C10.2938 9.58495 10.1351 9.74385 9.93895 9.74385Z" fill="#F2F2F6"/>
<path id="Vector_17" d="M3.55187 5.48555C3.35572 5.48555 3.19531 5.32665 3.19531 5.13071C3.19531 4.93478 3.35228 4.77588 3.54843 4.77588H3.55191C3.74806 4.77588 3.90675 4.93478 3.90675 5.13071C3.90675 5.32665 3.74802 5.48555 3.55187 5.48555Z" fill="#F2F2F6"/>
<path id="Vector_18" d="M3.55187 8.32442C3.35572 8.32442 3.19531 8.16552 3.19531 7.96958C3.19531 7.77364 3.35228 7.61475 3.54843 7.61475H3.55191C3.74806 7.61475 3.90675 7.77364 3.90675 7.96958C3.90675 8.16552 3.74802 8.32442 3.55187 8.32442Z" fill="#F2F2F6"/>
<path id="Vector_19" d="M3.55187 11.1628C3.35572 11.1628 3.19531 11.0039 3.19531 10.808C3.19531 10.612 3.35228 10.4531 3.54843 10.4531H3.55191C3.74806 10.4531 3.90675 10.612 3.90675 10.808C3.90675 11.0039 3.74802 11.1628 3.55187 11.1628Z" fill="#F2F2F6"/>
</g>
<path id="Vector_20" d="M3.55187 6.9045C3.35572 6.9045 3.19531 6.7456 3.19531 6.54966C3.19531 6.35372 3.35228 6.19482 3.54843 6.19482H3.55191C3.74806 6.19482 3.90675 6.35372 3.90675 6.54966C3.9067 6.7456 3.74802 6.9045 3.55187 6.9045Z" fill="white"/>
<path id="Vector_21" d="M3.55187 9.74336C3.35572 9.74336 3.19531 9.58446 3.19531 9.38853C3.19531 9.19259 3.35228 9.03369 3.54843 9.03369H3.55191C3.74806 9.03369 3.90675 9.19259 3.90675 9.38853C3.90675 9.58446 3.74802 9.74336 3.55187 9.74336Z" fill="white"/>
<path id="Vector_22" d="M2.48729 6.19502C2.29114 6.19502 2.13074 6.03612 2.13074 5.84019C2.13074 5.64425 2.2877 5.48535 2.48385 5.48535H2.48733C2.68349 5.48535 2.84217 5.64425 2.84217 5.84019C2.84213 6.03617 2.68344 6.19502 2.48729 6.19502Z" fill="white"/>
<path id="Vector_23" d="M2.48729 9.03389C2.29114 9.03389 2.13074 8.87499 2.13074 8.67905C2.13074 8.48312 2.2877 8.32422 2.48385 8.32422H2.48733C2.68349 8.32422 2.84217 8.48312 2.84217 8.67905C2.84217 8.87499 2.68344 9.03389 2.48729 9.03389Z" fill="white"/>
<path id="Vector_24" d="M2.48729 7.61446C2.29114 7.61446 2.13074 7.45556 2.13074 7.25962C2.13074 7.06368 2.2877 6.90479 2.48385 6.90479H2.48733C2.68349 6.90479 2.84217 7.06368 2.84217 7.25962C2.84217 7.45556 2.68344 7.61446 2.48729 7.61446Z" fill="#F2F2F6"/>
<path id="Vector_25" d="M2.48729 10.4533C2.29114 10.4533 2.13074 10.2944 2.13074 10.0985C2.13074 9.90255 2.2877 9.74365 2.48385 9.74365H2.48733C2.68349 9.74365 2.84217 9.90255 2.84217 10.0985C2.84217 10.2944 2.68344 10.4533 2.48729 10.4533Z" fill="#F2F2F6"/>
<path id="Vector_26" d="M5.6809 5.48555C5.48474 5.48555 5.32434 5.32665 5.32434 5.13071C5.32434 4.93478 5.48131 4.77588 5.67746 4.77588H5.68094C5.87709 4.77588 6.03577 4.93478 6.03577 5.13071C6.03577 5.32665 5.87701 5.48555 5.6809 5.48555Z" fill="white"/>
<path id="Vector_27" d="M5.6809 8.32393C5.48474 8.32393 5.32434 8.16503 5.32434 7.96909C5.32434 7.77316 5.48131 7.61426 5.67746 7.61426H5.68094C5.87709 7.61426 6.03577 7.77316 6.03577 7.96909C6.03577 8.16503 5.87701 8.32393 5.6809 8.32393Z" fill="white"/>
<path id="Vector_28" d="M5.6809 11.1628C5.48474 11.1628 5.32434 11.0039 5.32434 10.808C5.32434 10.612 5.48131 10.4531 5.67746 10.4531H5.68094C5.87709 10.4531 6.03577 10.612 6.03577 10.808C6.03577 11.0039 5.87701 11.1628 5.6809 11.1628Z" fill="white"/>
<path id="Vector_29" d="M5.6809 6.9045C5.48474 6.9045 5.32434 6.7456 5.32434 6.54966C5.32434 6.35372 5.48131 6.19482 5.67746 6.19482H5.68094C5.87709 6.19482 6.03577 6.35372 6.03577 6.54966C6.03573 6.7456 5.87701 6.9045 5.6809 6.9045Z" fill="#F2F2F6"/>
<path id="Vector_30" d="M5.6809 9.74336C5.48474 9.74336 5.32434 9.58446 5.32434 9.38853C5.32434 9.19259 5.48131 9.03369 5.67746 9.03369H5.68094C5.87709 9.03369 6.03577 9.19259 6.03577 9.38853C6.03577 9.58446 5.87701 9.74336 5.6809 9.74336Z" fill="#F2F2F6"/>
<path id="Vector_31" d="M4.61632 6.19502C4.42017 6.19502 4.25977 6.03612 4.25977 5.84019C4.25977 5.64425 4.41673 5.48535 4.61288 5.48535H4.61636C4.81252 5.48535 4.9712 5.64425 4.9712 5.84019C4.9712 6.03617 4.81247 6.19502 4.61632 6.19502Z" fill="#F2F2F6"/>
<path id="Vector_32" d="M4.61632 9.03389C4.42017 9.03389 4.25977 8.87499 4.25977 8.67905C4.25977 8.48312 4.41673 8.32422 4.61288 8.32422H4.61636C4.81252 8.32422 4.9712 8.48312 4.9712 8.67905C4.9712 8.87499 4.81247 9.03389 4.61632 9.03389Z" fill="#F2F2F6"/>
<path id="Vector_33" d="M4.61632 7.61446C4.42017 7.61446 4.25977 7.45556 4.25977 7.25962C4.25977 7.06368 4.41673 6.90479 4.61288 6.90479H4.61636C4.81252 6.90479 4.9712 7.06368 4.9712 7.25962C4.9712 7.45556 4.81247 7.61446 4.61632 7.61446Z" fill="white"/>
<path id="Vector_34" d="M4.61632 10.4533C4.42017 10.4533 4.25977 10.2944 4.25977 10.0985C4.25977 9.90255 4.41673 9.74365 4.61288 9.74365H4.61636C4.81252 9.74365 4.9712 9.90255 4.9712 10.0985C4.9712 10.2944 4.81247 10.4533 4.61632 10.4533Z" fill="white"/>
<path id="Vector_35" d="M7.80638 5.48555C7.61023 5.48555 7.44983 5.32665 7.44983 5.13071C7.44983 4.93478 7.60679 4.77588 7.80295 4.77588H7.80643C8.00258 4.77588 8.16126 4.93478 8.16126 5.13071C8.16126 5.32665 8.00254 5.48555 7.80638 5.48555Z" fill="#F2F2F6"/>
<path id="Vector_36" d="M7.80638 8.32393C7.61023 8.32393 7.44983 8.16503 7.44983 7.96909C7.44983 7.77316 7.60679 7.61426 7.80295 7.61426H7.80643C8.00258 7.61426 8.16126 7.77316 8.16126 7.96909C8.16126 8.16503 8.00254 8.32393 7.80638 8.32393Z" fill="#F2F2F6"/>
<path id="Vector_37" d="M7.80638 11.1628C7.61023 11.1628 7.44983 11.0039 7.44983 10.808C7.44983 10.612 7.60679 10.4531 7.80295 10.4531H7.80643C8.00258 10.4531 8.16126 10.612 8.16126 10.808C8.16126 11.0039 8.00254 11.1628 7.80638 11.1628Z" fill="#F2F2F6"/>
<path id="Vector_38" d="M7.80638 6.9045C7.61023 6.9045 7.44983 6.7456 7.44983 6.54966C7.44983 6.35372 7.60679 6.19482 7.80295 6.19482H7.80643C8.00258 6.19482 8.16126 6.35372 8.16126 6.54966C8.16122 6.7456 8.00254 6.9045 7.80638 6.9045Z" fill="white"/>
<path id="Vector_39" d="M7.80638 9.74336C7.61023 9.74336 7.44983 9.58446 7.44983 9.38853C7.44983 9.19259 7.60679 9.03369 7.80295 9.03369H7.80643C8.00258 9.03369 8.16126 9.19259 8.16126 9.38853C8.16126 9.58446 8.00254 9.74336 7.80638 9.74336Z" fill="white"/>
<path id="Vector_40" d="M6.74193 6.19502C6.54578 6.19502 6.38538 6.03612 6.38538 5.84019C6.38538 5.64425 6.54234 5.48535 6.73849 5.48535H6.74197C6.93813 5.48535 7.09681 5.64425 7.09681 5.84019C7.09677 6.03617 6.93808 6.19502 6.74193 6.19502Z" fill="white"/>
<path id="Vector_41" d="M6.74193 9.03389C6.54578 9.03389 6.38538 8.87499 6.38538 8.67905C6.38538 8.48312 6.54234 8.32422 6.73849 8.32422H6.74197C6.93813 8.32422 7.09681 8.48312 7.09681 8.67905C7.09681 8.87499 6.93808 9.03389 6.74193 9.03389Z" fill="white"/>
<path id="Vector_42" d="M6.74193 7.61446C6.54578 7.61446 6.38538 7.45556 6.38538 7.25962C6.38538 7.06368 6.54234 6.90479 6.73849 6.90479H6.74197C6.93813 6.90479 7.09681 7.06368 7.09681 7.25962C7.09681 7.45556 6.93808 7.61446 6.74193 7.61446Z" fill="#F2F2F6"/>
<path id="Vector_43" d="M6.74193 10.4533C6.54578 10.4533 6.38538 10.2944 6.38538 10.0985C6.38538 9.90255 6.54234 9.74365 6.73849 9.74365H6.74197C6.93813 9.74365 7.09681 9.90255 7.09681 10.0985C7.09681 10.2944 6.93808 10.4533 6.74193 10.4533Z" fill="#F2F2F6"/>
<path id="Vector_44" d="M8.87438 6.19502C8.67822 6.19502 8.51782 6.03612 8.51782 5.84019C8.51782 5.64425 8.67479 5.48535 8.87094 5.48535H8.87442C9.07057 5.48535 9.22926 5.64425 9.22926 5.84019C9.22921 6.03617 9.07053 6.19502 8.87438 6.19502Z" fill="#F2F2F6"/>
<path id="Vector_45" d="M8.87438 9.03389C8.67822 9.03389 8.51782 8.87499 8.51782 8.67905C8.51782 8.48312 8.67479 8.32422 8.87094 8.32422H8.87442C9.07057 8.32422 9.22926 8.48312 9.22926 8.67905C9.22926 8.87499 9.07053 9.03389 8.87438 9.03389Z" fill="#F2F2F6"/>
<path id="Vector_46" d="M8.87438 7.61446C8.67822 7.61446 8.51782 7.45556 8.51782 7.25962C8.51782 7.06368 8.67479 6.90479 8.87094 6.90479H8.87442C9.07057 6.90479 9.22926 7.06368 9.22926 7.25962C9.22926 7.45556 9.07053 7.61446 8.87438 7.61446Z" fill="white"/>
<path id="Vector_47" d="M8.87438 10.4533C8.67822 10.4533 8.51782 10.2944 8.51782 10.0985C8.51782 9.90255 8.67479 9.74365 8.87094 9.74365H8.87442C9.07057 9.74365 9.22926 9.90255 9.22926 10.0985C9.22926 10.2944 9.07053 10.4533 8.87438 10.4533Z" fill="white"/>
<path id="Vector_48" d="M0.128906 15.4831L0.870547 16.0692H22V14.0415H0.709672L0.128906 15.4831Z" fill="#F2F2F6"/>
<path id="Vector_49" d="M0 14.0415V16.0692H0.870547C0.767379 15.8191 0.709715 15.5455 0.709715 15.2581V14.0415L0 14.0415Z" fill="#E1E1E6"/>
</g>
</g>
</svg>
